<svg width="12" height="12" viewBox="0 0 12 12" fill="none" xmlns="http://www.w3.org/2000/svg">
<g clip-path="url(#clip0_9_1355)">
<path d="M8.90464 2.86401C7.15953 1.26349 4.44717 1.3806 2.84665 3.1257C1.583 4.50357 1.35746 6.54217 2.29001 8.16294C3.47558 10.2117 6.09541 10.9143 8.14558 9.73021C9.11139 9.17212 9.82273 8.25981 10.1264 7.18556C10.255 6.73013 10.7293 6.46555 11.1847 6.59422C11.6401 6.7229 11.9047 7.19713 11.776 7.65256C10.8738 10.8406 7.55858 12.6941 4.3691 11.7919C1.18107 10.8898 -0.672476 7.57449 0.229716 4.38501C1.13191 1.19553 4.44717 -0.656562 7.63665 0.24563C8.56487 0.508769 9.41645 0.990227 10.1177 1.65241L11.27 0.500094C11.4377 0.332379 11.7081 0.332379 11.8758 0.498648C11.9568 0.579614 12.0016 0.68805 12.0016 0.80227V4.48188C12.0016 4.719 11.8093 4.90984 11.5736 4.90984H7.89256C7.65545 4.90984 7.4646 4.71755 7.4646 4.48044C7.4646 4.36766 7.50942 4.25923 7.58894 4.17826L8.90464 2.86401Z" fill="#0B5BF5"/>
</g>
<defs>
<clipPath id="clip0_9_1355">
<rect width="12" height="12" fill="white"/>
</clipPath>
</defs>
</svg>
