<svg width="30" height="30" viewBox="0 0 30 30" fill="none" xmlns="http://www.w3.org/2000/svg">
<g clip-path="url(#clip0_82_1159)">
<path fill-rule="evenodd" clip-rule="evenodd" d="M6.53366 3H23.8134C24.2257 3 24.6066 3.22056 24.8121 3.5784L29.8464 12.3392C30.1076 12.7936 30.03 13.367 29.6575 13.7354L15.8005 27.445C15.3516 27.8892 14.6296 27.8892 14.1807 27.445L0.342436 13.754C-0.0386015 13.377 -0.109953 12.7868 0.170244 12.3296L5.5515 3.55029C5.76108 3.20838 6.13298 3 6.53366 3ZM21.5823 6.91142V9.3696H16.6599V11.0739C20.1171 11.256 22.7108 12.0041 22.73 12.9007V14.7698C22.7106 15.6664 20.1171 16.4145 16.6599 16.5966V20.7792H13.3915V16.5966C9.93435 16.4145 7.34062 15.6664 7.32142 14.7698L7.32149 12.9007C7.34075 12.0041 9.93435 11.256 13.3915 11.0739V9.3696H8.46915V6.91142H21.5823ZM15.0257 15.3124C18.7151 15.3124 21.7987 14.68 22.5532 13.8353C21.9133 13.119 19.5985 12.5552 16.6599 12.4004V14.1848C16.1332 14.2126 15.5865 14.2272 15.0257 14.2272C14.4649 14.2272 13.9182 14.2126 13.3915 14.1848V12.4004C10.4528 12.5552 8.13801 13.119 7.49807 13.8353C8.2527 14.68 11.3364 15.3124 15.0257 15.3124Z" fill="#009393"/>
<path fill-rule="evenodd" clip-rule="evenodd" d="M21.5821 6.91113V9.36932H16.6597V11.0736C20.1169 11.2558 22.7106 12.0038 22.7299 12.9004L22.7298 14.7695C22.7106 15.6662 20.1169 16.4142 16.6597 16.5963V20.7789H13.3913V16.5963C9.93421 16.4142 7.34049 15.6662 7.32129 14.7695L7.32135 12.9004C7.34061 12.0038 9.93421 11.2558 13.3913 11.0736V9.36932H8.46901V6.91113H21.5821ZM22.5532 13.835C21.7986 14.6797 18.7149 15.3122 15.0256 15.3122C11.3362 15.3122 8.25256 14.6797 7.49791 13.835C8.13786 13.1187 10.4526 12.5549 13.3913 12.4001V14.1845C13.918 14.2123 14.4648 14.2269 15.0256 14.2269C15.5863 14.2269 16.1331 14.2123 16.6597 14.1845V12.4001C19.5985 12.5549 21.9132 13.1187 22.5532 13.835Z" fill="white"/>
<path d="M22.5 30C26.6421 30 30 26.6421 30 22.5C30 18.3579 26.6421 15 22.5 15C18.3579 15 15 18.3579 15 22.5C15 26.6421 18.3579 30 22.5 30Z" fill="#EB322A"/>
<path fill-rule="evenodd" clip-rule="evenodd" d="M18.0651 18.1109C18.1317 18.028 18.2376 17.987 18.3427 18.0037L25.8717 19.1989C25.9359 19.2091 25.9948 19.24 26.0397 19.2871L27.8596 21.1964C27.8943 21.2318 27.9202 21.2759 27.9337 21.3262C27.9384 21.3431 27.9414 21.3605 27.9429 21.3781C27.9468 21.4222 27.9406 21.4651 27.9264 21.5045C27.9153 21.535 27.8991 21.5641 27.8776 21.5905L22.4101 28.3129C22.3437 28.3945 22.239 28.4347 22.135 28.4186C22.0311 28.4026 21.9433 28.3325 21.9048 28.2347L18.0207 18.4052C17.9817 18.3064 17.9986 18.194 18.0651 18.1109ZM27.0355 21.1907L25.8385 19.9349L23.9217 21.6298L27.0355 21.1907ZM25.2157 19.6946L19.3143 18.7579L22.9939 21.6592L25.2157 19.6946ZM23.248 22.3232L26.9415 21.8024L22.6333 27.0992L23.248 22.3232ZM22.05 26.9899L18.9964 19.2619L22.6716 22.1597L22.05 26.9899Z" fill="white"/>
</g>
<defs>
<clipPath id="clip0_82_1159">
<rect width="30" height="30" fill="white"/>
</clipPath>
</defs>
</svg>
