<svg width="30" height="30" viewBox="0 0 30 30" fill="none" xmlns="http://www.w3.org/2000/svg">
<g clip-path="url(#clip0_82_343)">
<path fill-rule="evenodd" clip-rule="evenodd" d="M6.53366 2.99805H23.8134C24.2257 2.99805 24.6066 3.21861 24.8121 3.57645L29.8464 12.3373C30.1076 12.7916 30.03 13.3651 29.6575 13.7335L15.8005 27.4431C15.3516 27.8872 14.6296 27.8872 14.1807 27.4431L0.342436 13.752C-0.0386015 13.375 -0.109953 12.7849 0.170244 12.3277L5.5515 3.54834C5.76108 3.20643 6.13298 2.99805 6.53366 2.99805ZM21.5823 6.90946V9.36765H16.6599V11.0719C20.1171 11.2541 22.7108 12.0021 22.73 12.8987V14.7679C22.7106 15.6645 20.1171 16.4125 16.6599 16.5946V20.7772H13.3915V16.5946C9.93435 16.4125 7.34062 15.6645 7.32142 14.7679L7.32149 12.8987C7.34075 12.0021 9.93435 11.2541 13.3915 11.0719V9.36765H8.46915V6.90946H21.5823ZM15.0257 15.3105C18.7151 15.3105 21.7987 14.678 22.5532 13.8333C21.9133 13.117 19.5985 12.5532 16.6599 12.3984V14.1829C16.1332 14.2106 15.5865 14.2252 15.0257 14.2252C14.4649 14.2252 13.9182 14.2106 13.3915 14.1829V12.3984C10.4528 12.5532 8.13801 13.117 7.49807 13.8333C8.2527 14.678 11.3364 15.3105 15.0257 15.3105Z" fill="#009393"/>
<path fill-rule="evenodd" clip-rule="evenodd" d="M21.5802 6.90918V9.36736H16.6578V11.0717C20.115 11.2538 22.7086 12.0018 22.728 12.8984L22.7278 14.7676C22.7086 15.6642 20.115 16.4123 16.6578 16.5944V20.777H13.3894V16.5944C9.93226 16.4123 7.33854 15.6642 7.31934 14.7676L7.3194 12.8984C7.33866 12.0018 9.93226 11.2538 13.3894 11.0717V9.36736H8.46706V6.90918H21.5802ZM22.5513 13.833C21.7966 14.6777 18.7129 15.3102 15.0237 15.3102C11.3343 15.3102 8.25061 14.6777 7.49596 13.833C8.13591 13.1167 10.4507 12.553 13.3894 12.3981V14.1826C13.9161 14.2103 14.4628 14.2249 15.0237 14.2249C15.5844 14.2249 16.1311 14.2103 16.6578 14.1826V12.3981C19.5966 12.553 21.9112 13.1167 22.5513 13.833Z" fill="white"/>
<path d="M25.5469 15L30.1066 22.5346L25.5637 20.593L25.5469 15Z" fill="#E68F7B"/>
<path d="M21.001 22.5346L25.5481 15L25.565 20.593L21.001 22.5346Z" fill="#F8EC7C"/>
<path d="M25.5481 25.3106L21.001 22.5324L25.565 20.5908L25.5481 25.3106Z" fill="#6EB87D"/>
<path d="M30.1066 22.5324L25.5637 20.5908L25.5469 25.3106L30.1066 22.5324Z" fill="#946BA7"/>
<path d="M25.5469 26.2673L30.1066 23.5645L25.5469 29.9891V26.2673Z" fill="#697CB9"/>
<path d="M25.5481 26.2673L21.001 23.5645L25.5481 29.9891V26.2673Z" fill="#4FADD0"/>
</g>
<defs>
<clipPath id="clip0_82_343">
<rect width="30" height="30" fill="white"/>
</clipPath>
</defs>
</svg>
