<svg width="60" height="60" viewBox="0 0 60 60" fill="none" xmlns="http://www.w3.org/2000/svg">
<path d="M29.9975 0C26.058 0.000218801 22.157 0.776407 18.5174 2.28425C14.8779 3.79209 11.5709 6.00206 8.78538 8.78797C5.99985 11.5739 3.79031 14.8812 2.28291 18.521C0.775516 22.1609 -0.000218807 26.062 4.62949e-08 30.0017C0.0002189 33.9413 0.776387 37.8424 2.28419 41.482C3.79199 45.1217 6.0019 48.4288 8.78773 51.2144C11.5736 54 14.8808 56.2096 18.5205 57.717C22.1603 59.2245 26.0613 60.0002 30.0008 60C37.9571 60 45.5875 56.8393 51.2134 51.2132C56.8394 45.5871 60 37.9565 60 30C60 22.0435 56.8394 14.4129 51.2134 8.7868C45.5875 3.1607 37.9571 1.18561e-07 30.0008 0H29.9975ZM26.6644 15.0193H33.3306V34.0182H26.6644V15.0193ZM26.6644 38.6845H33.3306V45.3508H26.6644V38.6845Z" fill="#C7C7C7"/>
</svg>
