<svg width="18" height="18" viewBox="0 0 18 18" fill="none" xmlns="http://www.w3.org/2000/svg">
<path d="M9.18182 1C13.7004 1 17.3636 4.66322 17.3636 9.18182C17.3636 13.7004 13.7004 17.3636 9.18182 17.3636C4.66322 17.3636 1 13.7004 1 9.18182C1 4.66322 4.66322 1 9.18182 1ZM9.18182 2.4876C8.30272 2.4876 7.43223 2.66075 6.62005 2.99717C5.80787 3.33359 5.06991 3.82668 4.44829 4.44829C3.82668 5.06991 3.33359 5.80787 2.99717 6.62005C2.66075 7.43223 2.4876 8.30272 2.4876 9.18182C2.4876 10.0609 2.66075 10.9314 2.99717 11.7436C3.33359 12.5558 3.82668 13.2937 4.44829 13.9153C5.06991 14.537 5.80787 15.03 6.62005 15.3665C7.43223 15.7029 8.30272 15.876 9.18182 15.876C10.9572 15.876 12.6599 15.1707 13.9153 13.9153C15.1707 12.6599 15.876 10.9572 15.876 9.18182C15.876 7.4064 15.1707 5.7037 13.9153 4.44829C12.6599 3.19288 10.9572 2.4876 9.18182 2.4876Z" fill="black"/>
<path d="M9.1819 1C11.661 3.4419 12.9009 6.16942 12.9009 9.18182C12.9009 12.1942 11.661 14.9217 9.1819 17.3636C6.70281 14.9217 5.46289 12.1942 5.46289 9.18182C5.46289 6.16942 6.70281 3.4419 9.1819 1ZM9.1819 3.20463L9.0019 3.43223C7.62289 5.21661 6.95049 7.12149 6.95049 9.18182C6.95049 11.2421 7.62289 13.147 9.0019 14.9314L9.1819 15.1583L9.3619 14.9314C10.6807 13.2244 11.3538 11.4065 11.4096 9.44959L11.4133 9.18182C11.4133 7.12223 10.7409 5.21661 9.3619 3.43223L9.1819 3.20463Z" fill="black"/>
<path d="M1.74414 8.43774H16.6202V9.92535H1.74414V8.43774Z" fill="black"/>
</svg>
