<svg width="14" height="14" viewBox="0 0 14 14" fill="none" xmlns="http://www.w3.org/2000/svg">
<rect opacity="0.01" width="14" height="14" fill="black"/>
<path fill-rule="evenodd" clip-rule="evenodd" d="M0.00012207 6.99986C0.00012207 3.1342 3.13433 0 6.99999 0C10.8662 0 14.0001 3.13418 13.9998 6.99986C13.9998 10.8658 10.8659 14 6.99999 14C3.13434 14 0.00012207 10.8658 0.00012207 6.99986ZM6.85962 9.98201C6.49583 10.3458 5.90601 10.3458 5.54222 9.98201L5.53073 9.97032C5.50149 9.94737 5.4733 9.92242 5.44636 9.89548L3.27284 7.72196C2.90905 7.35817 2.90905 6.76835 3.27284 6.40456C3.63663 6.04077 4.22645 6.04077 4.59024 6.40456L6.19626 8.01058L9.534 4.67284C9.89779 4.30905 10.4876 4.30905 10.8514 4.67284C11.2152 5.03663 11.2152 5.62645 10.8514 5.99024L6.85962 9.98201Z" fill="#8995A1"/>
</svg>
