<svg width="320" height="170" viewBox="0 0 320 170" fill="none" xmlns="http://www.w3.org/2000/svg">
<g clip-path="url(#clip0_93_245)">
<path d="M41.5725 139.87C41.1633 139.707 40.6423 140.622 40.2909 140.459C39.9407 140.297 40.3362 139.332 40.0159 138.074C39.9581 137.847 39.5941 136.417 38.9953 136.351C37.8602 136.227 36.8802 141.114 35.184 141.072C34.8118 141.063 34.3655 140.816 33.2081 140.748C32.7477 140.721 32.4976 140.742 32.3675 140.906C32.1829 141.14 32.4012 141.46 32.6207 142.251C32.95 143.438 32.6904 143.551 33.0322 144.437C33.2859 145.094 33.5623 145.377 33.4218 145.582C33.2231 145.872 32.5415 145.493 32.245 145.803C31.9425 146.12 32.2452 146.94 32.5615 147.485C33.1551 148.507 33.9684 148.856 34.6542 149.354C35.3994 149.895 36.3426 150.864 37.0316 152.736L42.5462 169.57C41.4876 166.059 38.7456 156.312 37.8722 152.578C37.6201 151.499 37.3971 150.381 37.975 149.425C38.5314 148.505 39.7631 147.846 40.8943 146.438C41.0264 146.274 41.3883 145.811 41.2404 145.503C41.1181 145.247 40.7588 145.33 40.6411 145.093C40.4832 144.776 41.0015 144.37 41.3966 143.558C41.6752 142.986 41.7508 142.503 41.8159 142.087C41.8355 141.961 42.1172 140.086 41.5725 139.87Z" fill="#F2F2F2"/>
<path d="M28.4948 161.074C28.297 161.228 28.5956 161.748 28.4143 161.873C28.2336 161.998 27.8743 161.526 27.1642 161.32C27.0362 161.283 26.2292 161.049 26.0242 161.324C25.6357 161.845 27.7517 163.736 27.2418 164.557C27.1299 164.737 26.8796 164.884 26.5125 165.433C26.3664 165.651 26.3043 165.78 26.3476 165.891C26.4091 166.049 26.6291 166.034 27.0808 166.155C27.7581 166.336 27.7389 166.496 28.2722 166.583C28.668 166.649 28.8865 166.595 28.9467 166.723C29.0318 166.904 28.6493 167.129 28.7159 167.364C28.7838 167.604 29.2737 167.692 29.6323 167.694C30.3053 167.698 30.7113 167.399 31.1534 167.206C31.634 166.996 32.382 166.813 33.4994 167.015L43.353 169.166C41.3244 168.672 35.7492 167.206 33.6643 166.557C33.0624 166.369 32.4489 166.156 32.1465 165.597C31.8554 165.058 31.8877 164.264 31.523 163.302C31.4804 163.19 31.3578 162.879 31.1637 162.862C31.0031 162.849 30.9399 163.049 30.7898 163.038C30.5885 163.024 30.5389 162.653 30.2545 162.225C30.0539 161.923 29.8384 161.746 29.6532 161.594C29.5973 161.549 28.7581 160.869 28.4948 161.074Z" fill="#F2F2F2"/>
<path d="M33.1382 158.906L32.1947 157.931L32.1869 157.808C32.1507 157.239 31.9975 156.775 31.7312 156.427C31.6889 156.371 31.6438 156.318 31.5978 156.264C31.4157 156.049 31.1892 155.783 31.0843 155.349C31.0264 155.107 30.9321 154.515 31.3134 154.303C31.4153 154.245 31.5175 154.233 31.6085 154.242C31.6067 154.223 31.6051 154.205 31.6033 154.185C31.5843 153.94 31.6148 153.806 31.6443 153.676C31.6668 153.577 31.6902 153.474 31.6941 153.27C31.6959 153.181 31.693 153.106 31.6906 153.043C31.6839 152.851 31.6859 152.615 31.8914 152.461C32.1167 152.303 32.3694 152.395 32.5368 152.456C32.8354 152.564 33.0146 152.67 33.1335 152.74C33.1768 152.766 33.2258 152.795 33.2442 152.801C33.3938 152.85 33.889 152.314 34.0765 152.113C34.4963 151.66 34.8596 151.269 35.2662 151.44C35.5572 151.562 35.6877 151.92 35.6637 152.534C35.6561 152.724 35.6209 152.892 35.5825 153.032C35.6935 153.019 35.8152 153.036 35.9271 153.124C36.1917 153.332 36.1696 153.763 35.8622 154.405C35.7863 154.565 35.6833 154.779 35.4791 155.002C35.3828 155.107 35.2864 155.189 35.2029 155.257C35.2393 155.308 35.269 155.371 35.2815 155.449C35.3185 155.679 35.1942 155.899 34.9027 156.094C34.5854 156.314 34.2893 156.45 34.0284 156.57C33.8008 156.675 33.6051 156.766 33.481 156.876C33.2535 157.083 33.2165 157.421 33.1916 157.843L33.1382 158.906Z" fill="#F2F2F2"/>
<path d="M28.7862 152.126L28.0828 153.286L27.9658 153.324C27.4244 153.504 27.0138 153.77 26.7448 154.116C26.702 154.171 26.6621 154.228 26.6214 154.286C26.46 154.516 26.2595 154.803 25.8664 155.015C25.6467 155.132 25.0983 155.373 24.7963 155.058C24.7142 154.975 24.6772 154.879 24.6625 154.788C24.6452 154.795 24.6277 154.801 24.6089 154.808C24.3772 154.888 24.2393 154.893 24.1064 154.897C24.0043 154.901 23.8989 154.904 23.7009 154.952C23.6141 154.973 23.5422 154.995 23.4817 155.013C23.2983 155.068 23.0696 155.126 22.8679 154.967C22.6583 154.789 22.6831 154.521 22.6994 154.344C22.7283 154.027 22.7852 153.827 22.823 153.694C22.837 153.646 22.8524 153.591 22.8538 153.572C22.8632 153.415 22.219 153.072 21.9773 152.941C21.433 152.65 20.9621 152.398 21.0246 151.961C21.0691 151.649 21.3823 151.431 21.9816 151.299C22.1681 151.258 22.3395 151.25 22.4845 151.251C22.4434 151.147 22.429 151.025 22.4857 150.895C22.6202 150.586 23.0425 150.498 23.7415 150.632C23.9153 150.665 24.1488 150.711 24.4161 150.852C24.5419 150.918 24.6454 150.991 24.733 151.054C24.773 151.006 24.8259 150.961 24.8986 150.929C25.1122 150.835 25.3558 150.9 25.6188 151.132C25.9117 151.383 26.1181 151.635 26.3004 151.857C26.4598 152.051 26.5976 152.217 26.7353 152.309C26.9932 152.477 27.3301 152.427 27.7441 152.344L28.7862 152.126Z" fill="#F2F2F2"/>
<path d="M25.8054 149.411L24.862 148.436L24.8541 148.313C24.818 147.744 24.6647 147.279 24.3985 146.931C24.3562 146.876 24.311 146.823 24.2651 146.769C24.0829 146.554 23.8564 146.288 23.7516 145.854C23.6936 145.611 23.5993 145.02 23.9807 144.807C24.0826 144.749 24.1847 144.738 24.2757 144.746C24.2739 144.728 24.2723 144.71 24.2705 144.69C24.2516 144.445 24.2821 144.311 24.3115 144.181C24.334 144.081 24.3575 143.979 24.3614 143.775C24.3631 143.686 24.3602 143.61 24.3579 143.547C24.3512 143.356 24.3532 143.12 24.5586 142.965C24.784 142.808 25.0367 142.9 25.2041 142.96C25.5027 143.069 25.6819 143.174 25.8007 143.245C25.844 143.27 25.893 143.299 25.9114 143.306C26.0611 143.355 26.5562 142.818 26.7437 142.618C27.1636 142.165 27.5269 141.773 27.9334 141.945C28.2244 142.067 28.355 142.425 28.3309 143.038C28.3234 143.229 28.2881 143.397 28.2497 143.537C28.3607 143.524 28.4824 143.541 28.5943 143.629C28.859 143.837 28.8368 144.268 28.5295 144.91C28.4535 145.07 28.3505 145.284 28.1463 145.507C28.05 145.611 27.9536 145.693 27.8701 145.762C27.9065 145.813 27.9363 145.875 27.9487 145.954C27.9857 146.184 27.8615 146.403 27.57 146.599C27.2527 146.819 26.9566 146.954 26.6957 147.074C26.468 147.179 26.2723 147.271 26.1482 147.38C25.9207 147.587 25.8837 147.926 25.8588 148.347L25.8054 149.411Z" fill="#F2F2F2"/>
<path d="M42.8903 169.277L42.5585 169.31L42.3209 169.541C42.2981 169.52 42.241 169.475 42.1524 169.404C41.6673 169.017 40.1904 167.841 38.1281 165.783C36.6884 164.347 35.3041 162.797 34.0127 161.175C32.7194 159.55 31.8363 158.246 31.1265 157.198C30.5911 156.408 30.0937 155.645 29.6096 154.902C28.3156 152.918 27.0931 151.044 25.4788 149.17C25.1186 148.752 24.3685 147.881 23.0916 147.324C22.3509 147.002 21.5426 146.831 20.6894 146.819L20.699 146.152C21.6413 146.166 22.536 146.355 23.3585 146.714C24.7743 147.331 25.5916 148.28 25.9843 148.735C27.6271 150.642 28.8612 152.535 30.1675 154.538C30.6502 155.278 31.1452 156.037 31.6784 156.825C32.3817 157.863 33.2571 159.156 34.5339 160.759C35.8096 162.362 37.1771 163.893 38.5984 165.312C40.6349 167.343 42.0899 168.502 42.5679 168.883C42.823 169.086 42.8764 169.129 42.8903 169.277Z" fill="#F2F2F2"/>
<path d="M20.3684 148.405C20.3467 148.421 20.3244 148.438 20.3011 148.453C19.8332 148.776 19.2095 148.828 18.4474 148.609C18.0895 148.506 17.7907 148.303 17.1948 147.899C17.1028 147.837 16.6418 147.517 16.1105 146.997C15.7631 146.658 15.6469 146.493 15.6137 146.294C15.5765 146.073 15.6277 145.859 15.7232 145.668C15.6776 145.622 15.6428 145.566 15.6237 145.496C15.5437 145.207 15.805 145.051 15.9451 144.965C16.0169 144.923 16.1069 144.871 16.1914 144.798C16.3248 144.684 16.3674 144.586 16.4325 144.437C16.4946 144.294 16.5719 144.117 16.7396 143.922C17.0689 143.537 17.4838 143.394 17.6205 143.347C18.3378 143.097 18.9616 143.323 19.6839 143.585C19.8283 143.638 20.3408 143.841 20.8849 144.242C21.2775 144.531 21.3899 144.707 21.4526 144.854C21.5822 145.156 21.5404 145.419 21.3971 146.038C21.248 146.685 21.1729 147.009 21.0761 147.246C20.8502 147.797 20.7084 148.142 20.3684 148.405Z" fill="#F2F2F2"/>
<path d="M42.2336 109.758L49.9469 122.524L94.8969 119.865L82.928 104.438L42.2336 109.758Z" fill="#F2F2F2"/>
<path d="M55.6645 169.469C55.4027 169.469 55.1747 169.276 55.1382 169.009L41.7064 70.9112C41.6665 70.6201 41.8701 70.3518 42.1612 70.312C42.4521 70.2699 42.7204 70.4756 42.7604 70.7668L56.1922 168.865C56.2321 169.156 56.0284 169.424 55.7374 169.464C55.7128 169.468 55.6886 169.469 55.6645 169.469Z" fill="#F2F2F2"/>
<path d="M42.2333 169.594C41.9396 169.594 41.7014 169.356 41.7014 169.062V70.858C41.7014 70.5643 41.9396 70.3261 42.2333 70.3261C42.5271 70.3261 42.7653 70.5643 42.7653 70.858V169.062C42.7653 169.356 42.5271 169.594 42.2333 169.594Z" fill="#F2F2F2"/>
<path d="M109.658 169.203C109.432 169.203 109.223 169.058 109.151 168.831L77.3669 67.8071C77.2787 67.5268 77.4345 67.2281 77.7147 67.1398C77.9948 67.052 78.2937 67.2076 78.3817 67.4876L110.166 168.512C110.254 168.792 110.098 169.091 109.818 169.179C109.765 169.195 109.711 169.203 109.658 169.203Z" fill="#F2F2F2"/>
<path d="M99.95 169.328C99.7125 169.328 99.4961 169.168 99.4348 168.927L77.3588 79.7664C77.2864 79.4817 77.4585 79.1921 77.7432 79.1196C78.0288 79.0477 78.3175 79.2194 78.3899 79.504L100.466 168.665C100.538 168.949 100.366 169.239 100.082 169.312C100.038 169.323 99.9934 169.328 99.95 169.328Z" fill="#F2F2F2"/>
<path d="M42.2336 72.4224L79.0713 71.8559L85.8537 110.555H42.7656L42.2336 72.4224Z" fill="#F2F2F2"/>
<path d="M331.827 169.053H2.79514V169.704H331.827V169.053Z" fill="#E6E6E6"/>
<path d="M70.2594 30.1377C71.3756 30.7649 73.1769 28.2841 73.5851 29.4975C73.9933 30.711 73.0046 35.6073 72.4945 36.7816C72.241 37.3653 71.8826 37.8991 71.6338 38.4848C71.385 39.0706 71.2516 39.744 71.4715 40.3412C71.8542 41.3805 73.1172 41.8032 73.7434 42.7167C74.4727 43.7805 74.1782 45.2134 73.8372 46.4574C73.5433 47.5296 73.2301 48.6116 72.6644 49.5686C72.0987 50.5257 71.2458 51.3591 70.1801 51.6757C68.8232 52.0789 67.373 51.5998 66.0649 51.0588C64.8073 50.5388 63.5631 49.9492 62.4935 49.1078C61.4238 48.2664 60.5313 47.1495 60.1574 45.841C59.6884 44.1996 60.0802 42.4033 60.8923 40.9017C61.7044 39.4001 62.9057 38.1492 64.1383 36.9681C66.2142 34.979 68.4235 33.129 70.7462 31.4346" fill="#2F2E41"/>
<path d="M77.1861 89.0627L106.971 100.345C106.971 100.345 109.453 102.827 109.904 107.114C110.355 111.401 118.704 135.77 118.704 135.77L111.483 138.478C111.483 138.478 99.2989 119.75 99.9758 112.078C99.9758 112.078 98.622 108.461 97.9451 108.351C97.2681 108.242 87.1143 103.052 80.5707 103.729C74.0272 104.406 56.8785 106.437 56.4272 98.5396C55.9759 90.6421 59.9335 90.6421 59.9335 90.6421L77.1861 89.0627Z" fill="#2F2E41"/>
<path d="M117.125 133.739C117.125 133.739 119.156 133.063 120.509 134.416C121.863 135.77 121.863 136.898 121.863 136.898C121.863 136.898 132.468 136.673 132.92 138.027C133.371 139.38 131.791 144.796 127.955 145.022C124.12 145.247 111.032 147.955 111.032 145.473C111.032 142.991 111.258 137.35 112.161 137.35C113.063 137.35 117.125 133.739 117.125 133.739Z" fill="#2F2E41"/>
<path d="M79.7596 96.2392L101.468 119.545C101.468 119.545 102.594 122.87 101.1 126.913C99.606 130.957 96.2992 156.503 96.2992 156.503L88.6263 155.733C88.6263 155.733 85.9957 133.546 90.0001 126.967C90.0001 126.967 90.3882 123.124 89.8297 122.727C89.2712 122.329 82.4657 113.179 76.299 110.888C70.1323 108.597 53.8576 102.823 56.9504 95.5428C60.0433 88.2622 63.5916 90.0148 63.5916 90.0148L79.7596 96.2392Z" fill="#2F2E41"/>
<path d="M95.7817 153.983C95.7817 153.983 97.9022 154.276 98.5165 156.089C99.1308 157.902 98.6311 158.914 98.6311 158.914C98.6311 158.914 108.24 163.408 108.045 164.822C107.85 166.236 104.035 170.391 100.496 168.895C96.9569 167.399 84.024 164.03 85.1232 161.805C86.2224 159.58 88.9228 154.622 89.7321 155.022C90.5413 155.421 95.7817 153.983 95.7817 153.983Z" fill="#2F2E41"/>
<path d="M59.9249 48.3347L67.1454 53.0731L75.2685 65.4833C75.2685 65.4833 77.0736 78.5705 76.3967 79.2474C75.7198 79.9243 75.9454 80.6013 75.9454 81.9551C75.9454 83.3089 77.603 83.4529 76.5486 84.6219C75.4941 85.791 74.6093 86.0344 76.1799 86.4768C77.7505 86.9192 79.5752 86.4875 78.6629 87.8315C77.7505 89.1756 78.4274 89.6269 77.9762 90.0782C77.5249 90.5294 59.2575 109.822 55.8729 102.376C52.4883 94.93 52.2531 66.3859 52.2531 66.3859L54.6914 57.0873L59.9249 48.3347Z" fill="#CCCCCC"/>
<path d="M37.6773 101.494C36.909 104.092 37.6267 106.595 39.2803 107.083C40.9338 107.572 42.8965 105.862 43.6647 103.263C43.9858 102.229 44.0546 101.133 43.8654 100.067L46.9817 89.0179L41.7654 87.666L39.2471 98.7021C38.5084 99.4941 37.9701 100.452 37.6773 101.494Z" fill="#FFB6B6"/>
<path d="M67.3856 64.0262C67.3856 64.0262 58.9757 57.606 55.7743 61.6549C52.5729 65.7037 40.8455 83.6783 40.8455 83.6783L40.0681 90.5282L46.7192 91.996L57.4693 76.1554L67.3856 64.0262Z" fill="#CCCCCC"/>
<path d="M109.666 39.076C111.594 37.1732 112.176 34.6357 110.965 33.4085C109.753 32.1813 107.209 32.7293 105.28 34.6331C104.499 35.383 103.909 36.309 103.559 37.3337L95.4892 45.4993L99.4018 49.2045L106.942 40.7613C107.971 40.4251 108.905 39.8473 109.666 39.076Z" fill="#FFB6B6"/>
<path d="M65.5454 57.5121C65.5454 57.5121 69.8033 67.198 74.5632 65.2014C79.323 63.2049 98.2786 53.1401 98.2786 53.1401L102.271 47.5198L97.1582 43.0194L80.0897 51.6887L65.5454 57.5121Z" fill="#CCCCCC"/>
<path d="M67.4709 46.4093C71.9436 46.4093 75.5695 42.7834 75.5695 38.3107C75.5695 33.838 71.9436 30.2121 67.4709 30.2121C62.9981 30.2121 59.3723 33.838 59.3723 38.3107C59.3723 42.7834 62.9981 46.4093 67.4709 46.4093Z" fill="#FFB6B6"/>
<path d="M58.3415 50.9942C60.2317 53.6906 61.1984 57.0221 61.0449 60.3115C63.1881 59.2733 64.6345 57.0799 65.1268 54.7499C65.6192 52.42 65.2436 49.9736 64.4525 47.7275C64.4446 47.705 64.4366 47.6826 64.4286 47.6602C63.2275 44.2888 64.3436 40.5207 67.2447 38.425C69.2017 37.0113 70.8989 35.2378 72.2015 33.2049C72.9369 32.0573 73.562 30.6176 73.0126 29.3701C72.5064 28.2206 71.1986 27.6834 69.9951 27.3239C67.2471 26.5031 64.3272 26.036 61.5066 26.5554C58.686 27.0748 55.9708 28.6969 54.6377 31.2363C53.3046 33.7757 53.6539 37.2413 55.8176 39.1238C55.1351 39.3445 54.6523 40.0678 54.7103 40.7827C54.7682 41.4976 55.3613 42.1337 56.0704 42.2415C55.6077 42.2251 55.3347 42.8344 55.4996 43.2669C55.6646 43.6994 56.0901 43.968 56.4959 44.1907C57.074 44.5078 57.7149 44.8394 57.7173 45.6698C57.7183 46.0028 57.5996 46.3259 57.4056 46.5965C56.9355 47.2523 56.1765 47.5477 55.4458 47.825C56.9912 48.2801 58.2235 49.6613 58.5001 51.2484" fill="#2F2E41"/>
<path d="M125.567 48.7909C138.978 48.7909 149.85 37.9193 149.85 24.5086C149.85 11.0978 138.978 0.226288 125.567 0.226288C112.157 0.226288 101.285 11.0978 101.285 24.5086C101.285 37.9193 112.157 48.7909 125.567 48.7909Z" fill="#1E69FF"/>
<path d="M124.309 24.6236L121.991 38.3739L124.401 38.7802L126.719 25.0299L124.309 24.6236Z" fill="white"/>
<path d="M133.297 33.0998L125.011 27.8035L115.448 30.0902L127.939 10.4395L133.297 33.0998Z" fill="white"/>
<path d="M278.671 143.004C279.029 142.862 279.485 143.662 279.793 143.52C280.099 143.378 279.753 142.533 280.033 141.432C280.084 141.233 280.403 139.981 280.927 139.924C281.921 139.815 282.778 144.093 284.263 144.057C284.589 144.049 284.98 143.832 285.993 143.773C286.396 143.749 286.615 143.767 286.729 143.911C286.89 144.116 286.699 144.396 286.507 145.089C286.219 146.127 286.446 146.227 286.147 147.002C285.925 147.577 285.683 147.825 285.806 148.004C285.98 148.259 286.577 147.927 286.836 148.198C287.101 148.475 286.836 149.193 286.559 149.67C286.039 150.565 285.327 150.871 284.727 151.306C284.075 151.78 283.249 152.629 282.646 154.267L277.818 169.004C278.745 165.931 281.146 157.398 281.91 154.128C282.131 153.185 282.326 152.205 281.82 151.369C281.333 150.563 280.255 149.987 279.265 148.754C279.149 148.61 278.832 148.205 278.962 147.935C279.069 147.712 279.383 147.784 279.486 147.577C279.624 147.299 279.171 146.944 278.825 146.233C278.581 145.732 278.515 145.309 278.458 144.945C278.441 144.835 278.194 143.193 278.671 143.004Z" fill="#F2F2F2"/>
<path d="M290.12 161.566C290.293 161.701 290.031 162.156 290.19 162.266C290.348 162.375 290.663 161.962 291.285 161.781C291.397 161.749 292.103 161.544 292.282 161.785C292.623 162.241 290.77 163.897 291.217 164.615C291.315 164.772 291.534 164.902 291.855 165.382C291.983 165.573 292.037 165.686 291.999 165.783C291.946 165.921 291.753 165.908 291.358 166.014C290.765 166.172 290.781 166.312 290.315 166.389C289.968 166.446 289.777 166.399 289.724 166.511C289.65 166.67 289.985 166.867 289.926 167.073C289.867 167.283 289.438 167.36 289.124 167.361C288.535 167.364 288.179 167.103 287.792 166.934C287.372 166.751 286.717 166.59 285.739 166.767L277.113 168.65C278.889 168.218 283.769 166.934 285.594 166.366C286.121 166.202 286.658 166.015 286.923 165.525C287.178 165.054 287.15 164.358 287.469 163.517C287.506 163.418 287.613 163.146 287.783 163.132C287.924 163.12 287.979 163.295 288.111 163.286C288.287 163.274 288.33 162.948 288.579 162.574C288.755 162.309 288.944 162.155 289.106 162.022C289.155 161.982 289.889 161.387 290.12 161.566Z" fill="#F2F2F2"/>
<path d="M286.055 159.669L286.881 158.815L286.888 158.708C286.919 158.209 287.054 157.803 287.287 157.498C287.324 157.45 287.363 157.403 287.403 157.356C287.563 157.168 287.761 156.934 287.853 156.555C287.904 156.342 287.986 155.825 287.652 155.639C287.563 155.588 287.474 155.578 287.394 155.585C287.396 155.569 287.397 155.553 287.399 155.536C287.415 155.322 287.389 155.204 287.363 155.09C287.343 155.003 287.323 154.913 287.319 154.735C287.318 154.657 287.32 154.591 287.322 154.536C287.328 154.368 287.326 154.162 287.147 154.026C286.949 153.888 286.728 153.969 286.582 154.022C286.32 154.117 286.163 154.209 286.059 154.271C286.021 154.293 285.978 154.318 285.962 154.324C285.831 154.367 285.398 153.897 285.234 153.722C284.866 153.326 284.548 152.983 284.192 153.133C283.937 153.24 283.823 153.553 283.844 154.09C283.851 154.257 283.882 154.404 283.915 154.526C283.818 154.515 283.712 154.53 283.614 154.607C283.382 154.789 283.401 155.166 283.67 155.728C283.737 155.868 283.827 156.056 284.006 156.251C284.09 156.343 284.175 156.414 284.248 156.474C284.216 156.519 284.19 156.574 284.179 156.642C284.146 156.844 284.255 157.036 284.51 157.207C284.788 157.399 285.047 157.518 285.276 157.623C285.475 157.715 285.646 157.795 285.755 157.891C285.954 158.072 285.987 158.369 286.008 158.738L286.055 159.669Z" fill="#F2F2F2"/>
<path d="M289.864 153.733L290.48 154.748L290.583 154.782C291.057 154.939 291.416 155.172 291.651 155.475C291.689 155.523 291.724 155.573 291.76 155.624C291.901 155.826 292.076 156.077 292.42 156.262C292.613 156.365 293.093 156.576 293.357 156.3C293.429 156.227 293.461 156.143 293.474 156.064C293.489 156.07 293.505 156.075 293.521 156.081C293.724 156.151 293.845 156.155 293.961 156.159C294.05 156.162 294.143 156.165 294.316 156.207C294.392 156.226 294.455 156.245 294.508 156.261C294.669 156.309 294.869 156.359 295.045 156.22C295.229 156.064 295.207 155.83 295.193 155.674C295.168 155.398 295.118 155.222 295.085 155.106C295.072 155.064 295.059 155.016 295.058 154.999C295.049 154.861 295.613 154.561 295.825 154.447C296.301 154.192 296.714 153.971 296.659 153.589C296.62 153.315 296.346 153.125 295.821 153.009C295.658 152.973 295.508 152.966 295.381 152.967C295.417 152.876 295.43 152.77 295.38 152.655C295.262 152.385 294.892 152.308 294.281 152.426C294.128 152.455 293.924 152.494 293.69 152.618C293.58 152.676 293.489 152.739 293.413 152.795C293.378 152.753 293.331 152.714 293.268 152.686C293.081 152.603 292.867 152.66 292.637 152.863C292.381 153.083 292.2 153.304 292.04 153.498C291.901 153.667 291.78 153.813 291.66 153.893C291.434 154.04 291.139 153.996 290.777 153.924L289.864 153.733Z" fill="#F2F2F2"/>
<path d="M292.475 151.356L293.301 150.503L293.308 150.395C293.339 149.897 293.473 149.49 293.706 149.186C293.743 149.137 293.783 149.091 293.823 149.043C293.983 148.856 294.181 148.622 294.273 148.242C294.323 148.03 294.406 147.512 294.072 147.326C293.983 147.276 293.894 147.266 293.814 147.273C293.815 147.257 293.817 147.241 293.818 147.223C293.835 147.009 293.808 146.892 293.783 146.778C293.763 146.691 293.742 146.601 293.739 146.423C293.737 146.344 293.74 146.279 293.742 146.223C293.748 146.056 293.746 145.849 293.566 145.714C293.369 145.576 293.148 145.656 293.001 145.71C292.74 145.804 292.583 145.897 292.479 145.959C292.441 145.981 292.398 146.006 292.382 146.012C292.251 146.055 291.818 145.585 291.653 145.41C291.286 145.013 290.968 144.671 290.612 144.82C290.357 144.928 290.243 145.241 290.264 145.778C290.271 145.945 290.301 146.092 290.335 146.214C290.238 146.203 290.131 146.217 290.033 146.294C289.802 146.477 289.821 146.854 290.09 147.416C290.157 147.556 290.247 147.744 290.426 147.939C290.51 148.03 290.594 148.102 290.667 148.162C290.635 148.207 290.609 148.261 290.599 148.33C290.566 148.532 290.675 148.724 290.93 148.895C291.208 149.087 291.467 149.206 291.695 149.311C291.895 149.403 292.066 149.483 292.175 149.579C292.374 149.76 292.406 150.056 292.428 150.425L292.475 151.356Z" fill="#F2F2F2"/>
<path d="M277.518 168.747L277.809 168.776L278.017 168.978C278.037 168.96 278.087 168.921 278.164 168.859C278.589 168.52 279.882 167.49 281.687 165.689C282.947 164.432 284.159 163.075 285.29 161.655C286.422 160.233 287.195 159.091 287.816 158.173C288.285 157.481 288.72 156.814 289.144 156.164C290.277 154.427 291.347 152.786 292.76 151.146C293.076 150.779 293.732 150.017 294.85 149.53C295.498 149.247 296.206 149.098 296.953 149.088L296.944 148.504C296.12 148.516 295.336 148.682 294.616 148.995C293.377 149.536 292.661 150.366 292.318 150.765C290.88 152.434 289.799 154.091 288.656 155.845C288.233 156.493 287.8 157.157 287.333 157.846C286.717 158.755 285.951 159.887 284.833 161.291C283.717 162.694 282.52 164.034 281.275 165.276C279.493 167.054 278.219 168.069 277.8 168.402C277.577 168.58 277.53 168.618 277.518 168.747Z" fill="#F2F2F2"/>
<path d="M297.233 150.476C297.252 150.49 297.271 150.505 297.292 150.518C297.701 150.801 298.247 150.846 298.915 150.655C299.228 150.564 299.489 150.387 300.011 150.033C300.092 149.978 300.495 149.698 300.96 149.243C301.264 148.946 301.366 148.802 301.395 148.628C301.428 148.434 301.383 148.247 301.299 148.08C301.339 148.04 301.37 147.991 301.386 147.929C301.456 147.676 301.228 147.54 301.105 147.465C301.042 147.428 300.963 147.382 300.889 147.318C300.773 147.219 300.735 147.132 300.678 147.002C300.624 146.877 300.556 146.722 300.41 146.552C300.121 146.214 299.758 146.089 299.638 146.048C299.01 145.829 298.464 146.027 297.832 146.257C297.706 146.303 297.257 146.48 296.781 146.831C296.437 147.084 296.339 147.238 296.284 147.367C296.17 147.632 296.207 147.862 296.332 148.404C296.463 148.97 296.529 149.254 296.613 149.461C296.811 149.943 296.935 150.246 297.233 150.476Z" fill="#F2F2F2"/>
<path d="M202.49 165.785L197.352 164.596L199.495 144.212L207.078 145.967L202.49 165.785Z" fill="#A0616A"/>
<path d="M184.913 161.595C184.69 161.827 184.405 162.677 184.332 162.99C184.109 163.954 184.709 164.915 185.672 165.138L201.584 168.821C202.241 168.973 202.897 168.563 203.049 167.906L203.203 167.244C203.203 167.244 204.451 165.435 203.398 162.606C203.398 162.606 200.939 164.061 198.626 160.355L198.111 158.542L190.599 161.753L186.936 161.367C186.135 161.283 185.47 161.012 184.913 161.595Z" fill="#2F2E41"/>
<path d="M256.405 154.798L252.586 158.435L236.74 145.434L242.378 140.066L256.405 154.798Z" fill="#A0616A"/>
<path d="M243.238 167.172C243.31 167.486 243.863 168.192 244.084 168.425C244.766 169.141 245.899 169.169 246.615 168.487L258.443 157.224C258.931 156.759 258.95 155.986 258.485 155.497L258.016 155.005C258.016 155.005 257.192 152.968 254.25 152.291C254.25 152.291 254.113 155.145 249.745 155.038L247.948 154.471L246.498 162.511L244.161 165.358C243.65 165.98 243.058 166.387 243.238 167.172Z" fill="#2F2E41"/>
<path d="M278.092 116.644L271.34 127.82L231.991 125.491L242.468 111.987L278.092 116.644Z" fill="#F2F2F2"/>
<path d="M266.335 168.915C266.564 168.915 266.764 168.746 266.796 168.513L278.554 82.6377C278.589 82.3828 278.411 82.1479 278.156 82.1131C277.901 82.0763 277.666 82.2563 277.631 82.5112L265.873 168.387C265.838 168.641 266.016 168.876 266.271 168.911C266.293 168.914 266.314 168.915 266.335 168.915Z" fill="#F2F2F2"/>
<path d="M278.092 169.025C278.349 169.025 278.558 168.816 278.558 168.559V82.5911C278.558 82.3339 278.349 82.1254 278.092 82.1254C277.835 82.1254 277.627 82.3339 277.627 82.5911V168.559C277.627 168.816 277.835 169.025 278.092 169.025Z" fill="#F2F2F2"/>
<path d="M219.069 168.683C219.267 168.683 219.451 168.556 219.513 168.357L247.337 79.9203C247.414 79.675 247.278 79.4135 247.033 79.3362C246.787 79.2593 246.526 79.3955 246.449 79.6406L218.625 168.077C218.548 168.323 218.684 168.584 218.929 168.661C218.976 168.676 219.023 168.683 219.069 168.683Z" fill="#F2F2F2"/>
<path d="M227.568 168.792C227.776 168.792 227.965 168.652 228.019 168.441L247.344 90.3895C247.408 90.1403 247.257 89.8867 247.008 89.8233C246.758 89.7603 246.505 89.9106 246.442 90.1598L227.116 168.211C227.053 168.46 227.203 168.714 227.453 168.777C227.491 168.787 227.53 168.792 227.568 168.792Z" fill="#F2F2F2"/>
<path d="M278.093 83.9606L245.845 83.4647L239.908 117.342H277.627L278.093 83.9606Z" fill="#F2F2F2"/>
<path d="M265.702 106.619C265.702 106.619 271.31 120.53 260.939 123.703C250.567 126.876 235.621 131.359 235.621 131.359L252.805 147.991L244.333 153.405C244.333 153.405 213.081 131.998 213.081 126.876C213.081 121.754 238.693 108.482 238.693 108.482L252.805 103.44L265.702 106.619Z" fill="#2F2E41"/>
<path d="M233.054 103.44C233.054 103.44 204.264 105.554 202.094 111.151C199.925 116.748 195.594 145.681 195.594 145.681L210.727 148.365L215.243 123.703L256.671 108.96L233.054 103.44Z" fill="#2F2E41"/>
<path d="M217.693 71.6481L225.295 62.3541L233.692 67.8614C233.692 67.8614 265.336 88.4201 266.644 107.711C266.644 107.711 253.913 119.958 237.575 104.576L225.737 101.436L217.693 71.6481Z" fill="#CCCCCC"/>
<path d="M183.929 110.304C181.404 111.254 178.866 110.722 178.261 109.115C177.656 107.508 179.213 105.435 181.739 104.484C182.844 104.068 183.952 103.936 184.899 104.054L195.649 100.161L197.369 105.245L186.588 108.543C185.954 109.256 185.034 109.888 183.929 110.304Z" fill="#A0616A"/>
<path d="M220.231 72.4554L217.693 71.6481L210.436 93.8223L185.619 102.926L187.203 109.038L215.425 102.304L226.317 91.6818L220.231 72.4554Z" fill="#CCCCCC"/>
<path d="M215.594 65.0341C220.566 65.0341 224.597 61.0034 224.597 56.0314C224.597 51.0593 220.566 47.0287 215.594 47.0287C210.622 47.0287 206.592 51.0593 206.592 56.0314C206.592 61.0034 210.622 65.0341 215.594 65.0341Z" fill="#A0616A"/>
<path d="M224.51 49.2468C224.51 49.2468 222.168 41.6847 214.401 42.6948C214.401 42.6948 212.831 44.2259 211.505 43.9877C210.178 43.7494 207.691 47.706 207.027 47.6977C206.362 47.6893 205.246 48.3399 206.354 48.3538C207.462 48.3678 208.669 47.8291 207.125 48.6959C205.582 49.5626 204.557 50.3252 205.659 50.7821C206.761 51.2391 206.972 50.0232 205.541 51.3345C204.111 52.6458 204.98 51.8813 205.637 52.5542C206.293 53.2271 205.261 56.8941 205.261 56.8941C205.261 56.8941 205.174 54.0992 208.94 54.1466C212.705 54.1939 215.131 55.1106 216.252 54.017C217.374 52.9233 219.02 54.6117 220.056 55.6741C221.092 56.7364 221.981 56.526 221.981 56.526L221.031 61.6096C221.031 61.6096 224.912 61.334 225.158 59.3353C225.405 57.3366 224.434 55.2276 225.107 54.5714C225.78 53.9152 224.51 49.2468 224.51 49.2468Z" fill="#2F2E41"/>
<path d="M179.325 108.508C191.065 108.508 200.582 98.9908 200.582 87.251C200.582 75.5112 191.065 65.9943 179.325 65.9943C167.586 65.9943 158.069 75.5112 158.069 87.251C158.069 98.9908 167.586 108.508 179.325 108.508Z" fill="#1E69FF"/>
<path d="M180.427 87.3518L178.317 87.7075L180.347 99.7446L182.457 99.3888L180.427 87.3518Z" fill="white"/>
<path d="M172.558 94.7721L179.811 90.1357L188.183 92.1375L177.248 74.9352L172.558 94.7721Z" fill="white"/>
<path d="M185.574 98.2134C182.876 98.2149 180.688 96.8241 180.687 95.107C180.686 93.39 182.873 91.9969 185.571 91.9954C186.752 91.9948 187.835 92.2609 188.68 92.7044L200.113 92.8417L199.935 98.2056L188.683 97.501C187.838 97.9454 186.755 98.2128 185.574 98.2134Z" fill="#A0616A"/>
<path d="M229.034 71.7473C234.557 77.784 235.235 86.8147 230.676 93.6087L221.521 101.983L192.165 99.1981L192.784 92.3264L213.531 91.2104L229.034 71.7473Z" fill="#CCCCCC"/>
</g>
<defs>
<clipPath id="clip0_93_245">
<rect width="318.065" height="170" fill="white" transform="translate(0.967743)"/>
</clipPath>
</defs>
</svg>
