<svg width="80" height="80" viewBox="0 0 80 80" fill="none" xmlns="http://www.w3.org/2000/svg">
<path d="M54.4775 32.49C65.02 32.49 72.1525 36.3175 72.4775 41.395L72.4875 41.76V64.945C72.365 70.165 65.225 74.1 54.4775 74.1C43.9575 74.1 36.8275 70.265 36.5 65.195L36.4875 64.8325V41.7575C36.4875 36.5075 43.7025 32.49 54.4775 32.49ZM42.3275 60.33V64.83C42.3275 66.105 47.72 68.2925 54.4775 68.2925C61.0175 68.2925 66.2975 66.24 66.6225 64.9575L66.6375 64.8325V60.3375L66.325 60.4875C63.5075 61.7375 59.8375 62.45 55.4925 62.545L54.4775 62.555C49.765 62.555 45.745 61.8225 42.6675 60.485L42.3275 60.33ZM42.3275 48.7625V53.2875C42.3275 54.5675 47.715 56.755 54.4775 56.755C61.02 56.7625 66.2975 54.705 66.6225 53.4125L66.6375 53.2875V48.765L66.3075 48.9225C63.4575 50.1725 59.7825 50.8925 55.4825 50.9875L54.4775 51C49.7725 51 45.7525 50.2625 42.67 48.92L42.3275 48.7625ZM54.4775 38.2875C47.7225 38.2875 42.3275 40.4825 42.3275 41.76C42.3275 43.0325 47.72 45.22 54.4775 45.22C61.2425 45.22 66.6375 43.0375 66.6375 41.76C66.6375 40.4775 61.2475 38.2875 54.4775 38.2875Z" fill="#1D6AFF"/>
<path d="M33.895 5.62744C47.98 5.62744 59.835 10.5224 60.27 18.0124L60.28 18.4399V27.2324C60.28 28.8374 58.97 30.1374 57.355 30.1374C55.85 30.1374 54.605 29.0049 54.4475 27.5499L54.43 27.2324V26.7124L54.165 26.8674C49.6475 29.3924 43 30.9424 36.01 31.2024L34.905 31.2324L33.895 31.2424C26.4425 31.2424 19.23 29.7749 14.345 27.1674L13.6625 26.7874L13.43 26.6474V36.3599C13.43 39.1974 20.605 42.5649 30.23 43.2424L30.995 43.2899L31.75 43.3249C32.79 43.3649 33.73 43.9524 34.215 44.8674C34.7025 45.7849 34.66 46.8924 34.1025 47.7674C33.545 48.6424 32.5625 49.1549 31.5225 49.1149C25.0375 48.8724 18.8725 47.4949 14.455 45.2524L13.695 44.8474L13.39 44.6724V54.3799C13.39 57.2174 20.5675 60.5849 30.1925 61.2624L30.9575 61.3099L31.7125 61.3449C32.7525 61.3899 33.69 61.9824 34.1725 62.8999C34.655 63.8174 34.6075 64.9249 34.0475 65.7974C33.7701 66.2269 33.385 66.5762 32.9306 66.8104C32.4761 67.0446 31.9682 67.1557 31.4575 67.1324C18.24 66.5199 7.93251 61.8099 7.52501 54.7824L7.51251 54.3499V18.4399C7.51251 10.6949 19.5275 5.62744 33.895 5.62744ZM33.895 11.4374C22.4375 11.4374 13.3525 15.1774 13.3525 18.4199C13.3525 21.6624 22.4725 25.4224 33.895 25.4224C45.325 25.4224 54.43 21.6774 54.43 18.4399C54.43 15.1899 45.3475 11.4374 33.895 11.4374Z" fill="#1D6AFF"/>
</svg>
