<svg width="80" height="80" viewBox="0 0 80 80" fill="none" xmlns="http://www.w3.org/2000/svg">
<path d="M11.2618 68.749H31.3346C32.0742 68.7492 32.7835 69.0431 33.3064 69.5661C33.8294 70.0892 34.1232 70.7985 34.1232 71.5381C34.1232 72.2778 33.8294 72.9871 33.3064 73.5101C32.7835 74.0332 32.0742 74.3271 31.3346 74.3272H9.35273C7.24001 74.3272 5.5291 72.6618 5.5291 70.609V55.7872C5.5291 46.7509 13.06 39.4236 22.3509 39.4236H35.4673C36.207 39.4236 36.9164 39.7174 37.4395 40.2405C37.9625 40.7635 38.2564 41.473 38.2564 42.2127C38.2564 42.9524 37.9625 43.6618 37.4395 44.1849C36.9164 44.7079 36.207 45.0018 35.4673 45.0018H22.3509C16.2273 45.0018 11.2636 49.8309 11.2636 55.7872V68.749H11.2618ZM56.3636 75.4545C51.7826 75.4545 47.3892 73.6347 44.15 70.3954C40.9107 67.1562 39.0909 62.7628 39.0909 58.1818C39.0909 53.6008 40.9107 49.2074 44.15 45.9681C47.3892 42.7288 51.7826 40.909 56.3636 40.909C60.9447 40.909 65.338 42.7288 68.5773 45.9681C71.8166 49.2074 73.6364 53.6008 73.6364 58.1818C73.6364 62.7628 71.8166 67.1562 68.5773 70.3954C65.338 73.6347 60.9447 75.4545 56.3636 75.4545ZM56.3636 69.9999C57.9156 69.9999 59.4524 69.6943 60.8863 69.1003C62.3201 68.5064 63.6229 67.6359 64.7204 66.5385C65.8178 65.4411 66.6883 64.1382 67.2822 62.7044C67.8761 61.2705 68.1818 59.7338 68.1818 58.1818C68.1818 56.6298 67.8761 55.093 67.2822 53.6591C66.6883 52.2253 65.8178 50.9225 64.7204 49.825C63.6229 48.7276 62.3201 47.8571 60.8863 47.2632C59.4524 46.6693 57.9156 46.3636 56.3636 46.3636C53.2293 46.3636 50.2233 47.6087 48.0069 49.825C45.7906 52.0414 44.5455 55.0474 44.5455 58.1818C44.5455 61.3161 45.7906 64.3221 48.0069 66.5385C50.2233 68.7548 53.2293 69.9999 56.3636 69.9999Z" fill="#1D6AFF" stroke="#2570F9" stroke-width="0.8"/>
<path d="M47.74 45.7018L67.0255 64.9872L63.1691 68.8436L43.8836 49.5581L47.74 45.7018Z" fill="#1D6AFF" stroke="#2570F9" stroke-width="0.8"/>
<path d="M35.3455 39.4183C37.2556 39.4183 39.147 39.042 40.9118 38.3111C42.6765 37.5801 44.28 36.5087 45.6307 35.158C46.9813 33.8073 48.0527 32.2038 48.7837 30.4391C49.5147 28.6744 49.8909 26.7829 49.8909 24.8728C49.8909 22.9627 49.5147 21.0712 48.7837 19.3065C48.0527 17.5418 46.9813 15.9383 45.6307 14.5876C44.28 13.2369 42.6765 12.1655 40.9118 11.4346C39.147 10.7036 37.2556 10.3273 35.3455 10.3273C31.4878 10.3273 27.7881 11.8598 25.0603 14.5876C22.3325 17.3154 20.8 21.0151 20.8 24.8728C20.8 28.7305 22.3325 32.4302 25.0603 35.158C27.7881 37.8858 31.4878 39.4183 35.3455 39.4183ZM35.3455 44.8728C24.3 44.8728 15.3455 35.9183 15.3455 24.8728C15.3455 13.8273 24.3 4.8728 35.3455 4.8728C46.3909 4.8728 55.3455 13.8273 55.3455 24.8728C55.3455 35.9183 46.3909 44.8728 35.3455 44.8728Z" fill="#1D6AFF" stroke="#2570F9" stroke-width="0.8"/>
</svg>
