<svg width="80" height="80" viewBox="0 0 80 80" fill="none" xmlns="http://www.w3.org/2000/svg">
<path fill-rule="evenodd" clip-rule="evenodd" d="M28.0131 51.9892L4.82413 34.8558C4.37379 34.5225 4.02051 34.0741 3.80222 33.5581C3.58393 33.0421 3.50803 32.477 3.58243 31.9217L3.58264 31.9202C3.65801 31.3649 3.88103 30.84 4.22843 30.4002C4.57583 29.9604 5.03488 29.6219 5.55769 29.42L72.1914 3.76424C72.7564 3.54689 73.3725 3.49807 73.9646 3.62384C74.5567 3.74961 75.0996 4.04446 75.5274 4.47264M28.0131 51.9892L45.1434 75.1762L45.1444 75.1776C45.4779 75.6272 45.9258 75.9793 46.4415 76.1972C46.9571 76.4152 47.5218 76.491 48.0767 76.4168C48.6325 76.342 49.1589 76.119 49.599 75.7714C50.0392 75.4238 50.3778 74.9643 50.5795 74.441L76.2354 7.80815C76.4522 7.24332 76.501 6.62687 76.3752 6.03507C76.2495 5.44332 75.955 4.90057 75.5274 4.47264M13.1239 33.2101L29.943 45.6361L60.6759 14.9017L13.1239 33.2101ZM46.7891 66.8749L65.097 19.3259L34.3657 50.0588L46.7891 66.8749Z" fill="#1D6AFF"/>
</svg>
