<svg width="80" height="80" viewBox="0 0 80 80" fill="none" xmlns="http://www.w3.org/2000/svg">
<path d="M57.4609 74.9219H22.5391C12.9141 74.9219 5.07812 67.0859 5.07812 57.4609V22.5391C5.07812 12.9141 12.9141 5.07812 22.5391 5.07812H57.4609C67.0859 5.07812 74.9219 12.9141 74.9219 22.5391V57.4609C74.9219 67.0859 67.0859 74.9219 57.4609 74.9219ZM22.5391 11.4297C16.4141 11.4297 11.4297 16.4141 11.4297 22.5391V57.4609C11.4297 63.5859 16.4141 68.5703 22.5391 68.5703H57.4609C63.5859 68.5703 68.5703 63.5859 68.5703 57.4609V22.5391C68.5703 16.4141 63.5859 11.4297 57.4609 11.4297H22.5391Z" fill="#216DFC"/>
<path d="M60.1094 52.1719H19.8906C18.1406 52.1719 16.7188 50.75 16.7188 49C16.7188 47.25 18.1406 45.8281 19.8906 45.8281H60.1094C61.8594 45.8281 63.2812 47.25 63.2812 49C63.2812 50.75 61.8594 52.1719 60.1094 52.1719Z" fill="#216DFC"/>
<path d="M26.5312 49C26.5312 50.6845 27.2004 52.3001 28.3916 53.4912C29.5827 54.6824 31.1983 55.3516 32.8828 55.3516C34.5674 55.3516 36.1829 54.6824 37.374 53.4912C38.5652 52.3001 39.2344 50.6845 39.2344 49C39.2344 47.3155 38.5652 45.6999 37.374 44.5088C36.1829 43.3176 34.5674 42.6484 32.8828 42.6484C31.1983 42.6484 29.5827 43.3176 28.3916 44.5088C27.2004 45.6999 26.5313 47.3155 26.5312 49Z" fill="#216DFC"/>
<path d="M60.1094 34.1797H19.8906C18.1406 34.1797 16.7188 32.7578 16.7188 31.0078C16.7188 29.2578 18.1406 27.8359 19.8906 27.8359H60.1094C61.8594 27.8359 63.2812 29.2578 63.2812 31.0078C63.2812 32.7578 61.8594 34.1797 60.1094 34.1797Z" fill="#216DFC"/>
<path d="M44.5313 31C44.5312 31.8341 44.6955 32.66 45.0147 33.4306C45.3339 34.2012 45.8018 34.9014 46.3916 35.4912C46.9814 36.081 47.6816 36.5489 48.4522 36.8681C49.2228 37.1873 50.0487 37.3516 50.8828 37.3516C51.7169 37.3516 52.5428 37.1873 53.3135 36.8681C54.0841 36.5489 54.7842 36.081 55.374 35.4912C55.9638 34.9014 56.4317 34.2012 56.7509 33.4306C57.0701 32.66 57.2344 31.8341 57.2344 31C57.2344 30.1659 57.0701 29.34 56.7509 28.5694C56.4317 27.7988 55.9638 27.0986 55.374 26.5088C54.7842 25.919 54.0841 25.4511 53.3135 25.1319C52.5428 24.8127 51.7169 24.6484 50.8828 24.6484C50.0487 24.6484 49.2228 24.8127 48.4522 25.1319C47.6816 25.4511 46.9814 25.919 46.3916 26.5088C45.8018 27.0986 45.3339 27.7988 45.0147 28.5694C44.6955 29.34 44.5312 30.1659 44.5313 31Z" fill="#216DFC"/>
</svg>
