<svg width="80" height="80" viewBox="0 0 80 80" fill="none" xmlns="http://www.w3.org/2000/svg">
<path d="M68.513 10.2L40.6068 4.80005H39.7209L11.8148 10.2C10.4859 10.2 9.6 11.55 9.6 12.9V46.2C9.6 51.6 11.3718 56.55 14.4725 60.6C17.1302 64.2 20.2309 67.35 24.6605 70.05C31.7477 74.55 38.835 76.8 39.278 76.8H40.6068C41.0498 76.8 48.137 74.55 55.2243 70.05C59.6539 67.35 62.7545 64.2 65.4123 60.6C68.513 56.1 70.2848 51.15 70.2848 46.2V12.9C70.7277 11.55 69.8418 10.65 68.513 10.2ZM65.4123 46.2C65.4123 53.85 60.9827 60.15 53.0095 65.55C49.4659 67.8 45.4793 69.6 40.6068 71.4H40.1639C23.3316 65.55 14.9155 57 14.9155 46.2V15.6C14.9155 15.15 14.9155 15.15 15.3584 15.15L40.1639 10.65H40.6068L64.9693 15.15C65.4123 15.15 65.4123 15.6 65.4123 15.6V46.2Z" fill="#1D6AFF" stroke="#1D6AFF" stroke-width="0.8"/>
<path d="M52.9 31.34L35.27 46.7L27.1 39.08C25.81 38.22 24.52 38.22 23.66 39.51C22.8 40.37 22.8 42.09 24.09 42.95L33.55 51.86C33.98 52.29 34.41 52.29 34.84 52.29C35.7 52.29 36.13 52.29 36.56 51.86L55.91 35.21C57.2 34.35 57.2 32.63 56.34 31.77C55.91 30.48 54.19 30.48 52.9 31.34Z" fill="#1D6AFF" stroke="#1D6AFF" stroke-width="1.6"/>
</svg>
