<svg width="80" height="80" viewBox="0 0 80 80" fill="none" xmlns="http://www.w3.org/2000/svg">
<path d="M31.1654 48.8705C30.3721 49.5613 29.5021 50.2077 28.5559 50.8084C27.6269 51.3977 26.7181 52.0184 25.8313 52.6695C24.0146 53.8975 22.5821 55.3431 21.5335 57.0058C20.4842 58.6691 19.9469 60.613 19.9218 62.8386H38.2645V58.9245H25.179C25.3577 58.3363 25.6904 57.7799 26.1767 57.2552C26.6624 56.7312 27.232 56.2257 27.8843 55.7395C28.5367 55.2538 29.2466 54.7676 30.0141 54.2812C30.7816 53.7956 31.5491 53.2835 32.3165 52.7463C33.0862 52.2073 33.829 51.631 34.5422 51.0195C35.2582 50.4054 35.898 49.7339 36.4609 49.0048C37.0234 48.2757 37.4713 47.4764 37.8041 46.6064C38.1362 45.737 38.3029 44.7645 38.3029 43.69C38.3029 42.8206 38.162 41.9057 37.8809 40.9464C37.599 39.987 37.1194 39.0984 36.4418 38.2794C35.7637 37.461 34.8745 36.7828 33.7748 36.2455C32.6745 35.7083 31.3057 35.4397 29.6688 35.4397C28.159 35.4397 26.8351 35.7023 25.6971 36.2264C24.5585 36.751 23.5925 37.4735 22.7999 38.3945C22.0066 39.3155 21.4119 40.4091 21.0155 41.6754C20.6186 42.9418 20.4208 44.3173 20.4208 45.8007H24.7954C24.8206 44.8545 24.9165 43.9719 25.0832 43.1529C25.2493 42.3345 25.5053 41.6245 25.8508 41.0231C26.1961 40.4223 26.6566 39.9486 27.2322 39.6033C27.8078 39.2579 28.5303 39.0852 29.4004 39.0852C30.3465 39.0852 31.114 39.2453 31.7028 39.5649C32.291 39.8851 32.7515 40.2814 33.0843 40.7545C33.4164 41.2282 33.6407 41.7396 33.7557 42.2895C33.8709 42.8399 33.9284 43.3579 33.9284 43.8435C33.9027 44.8928 33.634 45.8199 33.1226 46.6257C32.6103 47.4315 31.9581 48.1798 31.1654 48.8705ZM52.1943 62.8387H56.3387V56.4686H59.7923V53.015H56.3387V35.9769H52.1943L40.6821 52.1324V56.4686H52.1943V62.8387ZM44.059 53.015L52.1175 41.1958H52.1943V53.015H44.059Z" fill="#5F6FEE" stroke="#1D6AFF" stroke-width="0.8"/>
<path d="M65.4708 9.87577H60.8266V6.19051C60.8266 5.66526 60.3858 5.23315 59.842 5.23315H57.1686C56.6125 5.23315 56.184 5.66174 56.184 6.19051V9.87577H23.6861V6.19051C23.6861 5.66526 23.2453 5.23315 22.7016 5.23315H20.0281C19.472 5.23315 19.0436 5.66174 19.0436 6.19051V9.87577H14.3993C9.26354 9.87577 5.11588 14.0296 5.11588 19.1536V65.5938C5.11588 70.7069 9.27218 74.8715 14.3993 74.8715H65.4709C70.6067 74.8715 74.7543 70.7177 74.7543 65.5938V19.1536C74.7543 14.0404 70.5979 9.87577 65.4708 9.87577ZM70.1116 65.5938C70.1116 68.1568 68.0395 70.2291 65.4708 70.2291H14.3993C11.8401 70.2291 9.75841 68.1469 9.75841 65.5938V28.446H70.1116V65.5938ZM70.1116 23.8034H9.75841V19.1536C9.75841 16.5906 11.8305 14.5183 14.3993 14.5183H19.0435V18.2036C19.0435 18.7288 19.4843 19.1609 20.028 19.1609H22.7015C23.2576 19.1609 23.686 18.7323 23.686 18.2036V14.5183H56.1839V18.2036C56.1839 18.7288 56.6247 19.1609 57.1684 19.1609H59.8418C60.398 19.1609 60.8264 18.7323 60.8264 18.2036V14.5183H65.4706C68.0298 14.5183 70.1115 16.6005 70.1115 19.1536V23.8034H70.1116Z" fill="#1D6AFF" stroke="#1D6AFF" stroke-width="0.8"/>
</svg>
