<svg width="34" height="34" viewBox="0 0 34 34" fill="none" xmlns="http://www.w3.org/2000/svg">
<g clip-path="url(#clip0_108_6829)">
<path d="M22.559 24.7982L25.3482 11.6498C25.5947 10.4927 24.9305 10.0373 24.1716 10.3214L7.77873 16.6393C6.65912 17.0753 6.67858 17.7018 7.58927 17.986L11.7822 19.295L21.5159 13.1665C21.9713 12.8629 22.389 13.0342 22.0478 13.3377L14.1743 20.4522L13.8708 24.7787C14.3067 24.7787 14.4973 24.5893 14.7244 24.361L16.7729 22.3878L21.0229 25.5182C21.8013 25.9542 22.3514 25.7271 22.5602 24.7969L22.559 24.7982ZM34 17C34 26.3913 26.3913 34 17 34C7.60873 34 0 26.3913 0 17C0 7.60873 7.60873 0 17 0C26.3913 0 34 7.60873 34 17Z" fill="white"/>
</g>
<defs>
<clipPath id="clip0_108_6829">
<rect width="34" height="34" fill="white"/>
</clipPath>
</defs>
</svg>
