<svg width="102" height="30" viewBox="0 0 102 30" fill="none" xmlns="http://www.w3.org/2000/svg">
<path d="M48.632 23.312C45.9107 23.312 43.978 22.662 42.834 21.362C41.7073 20.062 41.144 18.0773 41.144 15.408V5.632H45.252V15.746C45.252 16.5953 45.33 17.3407 45.486 17.982C45.6593 18.606 45.9887 19.0913 46.474 19.438C46.9593 19.7847 47.6787 19.958 48.632 19.958C49.5853 19.958 50.296 19.7847 50.764 19.438C51.2493 19.0913 51.57 18.606 51.726 17.982C51.8993 17.3407 51.986 16.5953 51.986 15.746V5.632H56.094V15.408C56.094 18.0773 55.522 20.062 54.378 21.362C53.234 22.662 51.3187 23.312 48.632 23.312ZM58.6442 23V5.632H65.3262C66.8342 5.632 68.1776 5.788 69.3562 6.1C70.5522 6.412 71.4882 6.97533 72.1642 7.79C72.8576 8.60467 73.2042 9.77467 73.2042 11.3C73.2042 12.808 72.8576 13.978 72.1642 14.81C71.4882 15.6247 70.5522 16.188 69.3562 16.5C68.1776 16.812 66.8342 16.968 65.3262 16.968H62.7522V23H58.6442ZM62.7522 13.562H65.4562C66.0976 13.562 66.6696 13.5013 67.1722 13.38C67.6922 13.2587 68.0996 13.0333 68.3942 12.704C68.7062 12.3747 68.8622 11.9067 68.8622 11.3C68.8622 10.6933 68.7062 10.234 68.3942 9.922C68.0996 9.59267 67.6922 9.376 67.1722 9.272C66.6696 9.15067 66.0976 9.09 65.4562 9.09H62.7522V13.562ZM78.3693 23.312C77.5546 23.312 76.8093 23.156 76.1333 22.844C75.4573 22.532 74.92 22.0987 74.5213 21.544C74.1226 20.972 73.9233 20.296 73.9233 19.516C73.9233 18.4587 74.2873 17.618 75.0153 16.994C75.7606 16.37 76.7746 15.902 78.0573 15.59C79.34 15.278 80.8133 15.0613 82.4773 14.94C82.4773 14.0213 82.33 13.3713 82.0353 12.99C81.7406 12.6087 81.1686 12.418 80.3193 12.418C79.782 12.418 79.3053 12.548 78.8893 12.808C78.4906 13.0507 78.222 13.432 78.0833 13.952L74.7553 12.756C75.1886 11.8893 75.908 11.17 76.9133 10.598C77.936 10.026 79.184 9.74 80.6573 9.74C82.4946 9.74 83.9073 10.1473 84.8953 10.962C85.8833 11.7767 86.3773 13.1633 86.3773 15.122V17.956C86.3773 18.5107 86.3946 19.1087 86.4293 19.75C86.464 20.3913 86.516 20.998 86.5853 21.57C86.6546 22.142 86.7326 22.6187 86.8193 23H83.1533L82.6853 21.44C82.2 22.116 81.5846 22.6013 80.8393 22.896C80.1113 23.1733 79.288 23.312 78.3693 23.312ZM79.8253 20.608C80.6053 20.608 81.2553 20.4 81.7753 19.984C82.2953 19.568 82.5553 18.7707 82.5553 17.592V17.28C81.186 17.4013 80.0853 17.592 79.2533 17.852C78.4213 18.0947 78.0053 18.554 78.0053 19.23C78.0053 19.646 78.1786 19.984 78.5253 20.244C78.872 20.4867 79.3053 20.608 79.8253 20.608ZM89.6204 27.186V24.326H90.4004C90.9897 24.326 91.4317 24.3 91.7264 24.248C92.0211 24.196 92.2464 24.066 92.4024 23.858C92.5757 23.6673 92.7317 23.3553 92.8704 22.922L87.9304 10.104H92.1684L94.6904 18.164L97.1604 10.104H101.398L96.4584 23C96.0424 24.092 95.6177 24.9413 95.1844 25.548C94.7684 26.1547 94.2311 26.5793 93.5724 26.822C92.9137 27.0647 92.0211 27.186 90.8944 27.186H89.6204Z" fill="white"/>
<g clip-path="url(#clip0_64_5894)">
<path d="M14.9614 0C17.1078 0 19.1486 0.451963 20.9938 1.26591L9.3771 12.8826C8.29287 13.9668 8.29287 15.7247 9.3771 16.8089L13.7932 21.2251C14.1712 21.6031 13.9035 22.2494 13.3689 22.2494H3.06541C2.34087 22.2494 1.66301 21.8619 1.36038 21.2036C0.487009 19.3037 0 17.1895 0 14.9614C0 6.69846 6.69846 0 14.9614 0Z" fill="white"/>
<path fill-rule="evenodd" clip-rule="evenodd" d="M14.9785 29.9613C12.8322 29.9613 10.7914 29.5093 8.94617 28.6954L20.5629 17.0787C21.6471 15.9945 21.6471 14.2366 20.5629 13.1524L15.9761 8.56546C15.6611 8.25048 15.8842 7.71191 16.3296 7.71191H26.8746C27.5991 7.71191 28.277 8.0994 28.5796 8.75772C29.453 10.6576 29.94 12.7719 29.94 14.9999C29.94 23.2628 23.2415 29.9613 14.9785 29.9613Z" fill="white"/>
</g>
<defs>
<clipPath id="clip0_64_5894">
<rect width="30" height="30" fill="white"/>
</clipPath>
</defs>
</svg>
