<?xml version="1.0" encoding="UTF-8"?>
<svg width="36px" height="36px" viewBox="0 0 36 36" version="1.1" xmlns="http://www.w3.org/2000/svg" xmlns:xlink="http://www.w3.org/1999/xlink">
    <title>TRX</title>
    <g id="页面-1" stroke="none" stroke-width="1" fill="none" fill-rule="evenodd">
        <g id="TRX" transform="translate(0.552734, 0.482031)" fill-rule="nonzero">
            <path d="M0,17.4804688 C0,27.1346651 7.82627244,34.9609375 17.4804688,34.9609375 C27.1346651,34.9609375 34.9609375,27.1346651 34.9609375,17.4804688 C34.9609375,7.82627244 27.1346651,0 17.4804688,0 C7.82627244,0 0,7.82627244 0,17.4804687 L0,17.4804688 Z" id="路径" fill="#D80917"></path>
            <path d="M17.0839844,29.2679687 C17.0511719,29.2679687 17.0171875,29.2660156 16.984375,29.2609375 C16.7144542,29.2238752 16.4877905,29.0392588 16.396875,28.7824219 L9.29453125,8.6640625 C9.20429687,8.4078125 9.2640625,8.12265625 9.44960937,7.92421875 C9.63515625,7.72578125 9.91679687,7.64609375 10.1773437,7.71992187 L24.4855469,11.7101562 C24.578125,11.7359375 24.6664062,11.7804687 24.7417969,11.8410156 L27.4320312,13.9777344 C27.7351562,14.2179687 27.7976562,14.6535156 27.5742187,14.9683594 L17.6785156,28.9597656 C17.5421951,29.1530064 17.3204696,29.2679687 17.0839844,29.2679687 Z M11.1347656,9.49921875 L17.3015625,26.9699219 L25.9863281,14.6902344 L23.9519531,13.0742187 L11.1347656,9.49921875 Z" id="形状" fill="#FFFFFF"></path>
            <path d="M17.0851563,29.2679687 C17.0582031,29.2679687 17.0324219,29.2664062 17.0054688,29.2636719 C16.6058594,29.2203125 16.3167969,28.8609375 16.3597656,28.4613281 L17.4308594,18.54375 C17.4734375,18.1425781 17.8449219,17.8609375 18.2332031,17.8980469 C18.6328125,17.9414062 18.921875,18.3007812 18.8789063,18.7003906 L17.8078125,28.6179687 C17.7679688,28.9910156 17.4523438,29.2679687 17.0851563,29.2679687 L17.0851563,29.2679687 Z" id="路径" fill="#FFFFFF"></path>
            <path d="M18.1550781,19.3503907 C17.9703125,19.3503907 17.7851562,19.2808594 17.6429687,19.140625 C17.3570312,18.8574219 17.3542969,18.3964844 17.6371094,18.1101562 L23.7714844,11.8996094 C24.0546875,11.6136719 24.515625,11.6109375 24.8015625,11.8933594 C25.0875,12.1765625 25.0902344,12.6375 24.8074219,12.9238281 L18.6726562,19.1339844 C18.5360846,19.2725398 18.3496274,19.3505 18.1550781,19.3503907 Z" id="路径" fill="#FFFFFF"></path>
            <path d="M18.1550781,19.3503906 C17.8804687,19.3503906 17.6171875,19.19375 17.49375,18.9273437 C17.3257812,18.5625 17.4851562,18.1292969 17.8492187,17.9605469 L26.6734375,13.8871094 C27.040625,13.7183594 27.4714844,13.8777344 27.640625,14.2433594 C27.8085937,14.6082031 27.6492187,15.0414062 27.2851562,15.2101562 L18.4609375,19.2835937 C18.3649485,19.3275184 18.2606398,19.3502984 18.1550781,19.3503906 L18.1550781,19.3503906 Z" id="路径" fill="#FFFFFF"></path>
            <path d="M18.2601562,19.4769538 C18.046875,19.4769538 17.8363281,19.3835937 17.6925781,19.2039062 L9.41328125,8.87695312 C9.16132812,8.56328125 9.21210937,8.10507812 9.5265625,7.85351562 C9.83945312,7.603125 10.2996094,7.65351562 10.55,7.96679687 L18.8277344,18.29375 C19.0796875,18.6074219 19.0296875,19.065625 18.7152344,19.3171875 C18.5862156,19.4208093 18.4256352,19.4771848 18.2601562,19.4769538 L18.2601562,19.4769538 Z" id="路径" fill="#FFFFFF"></path>
        </g>
    </g>
</svg>