<svg width="20" height="20" viewBox="0 0 20 20" fill="none" xmlns="http://www.w3.org/2000/svg">
<path d="M10.132 17.9067L5.62921 14.1539C5.45577 14.0139 5.24669 13.9251 5.0255 13.8975H1.05976C0.963791 13.8973 0.868785 13.8783 0.780188 13.8414C0.691591 13.8045 0.611143 13.7505 0.543452 13.6824C0.475762 13.6144 0.422158 13.5337 0.385712 13.4449C0.349267 13.3561 0.330695 13.261 0.33106 13.1651V6.73079C0.331296 6.53709 0.407971 6.3513 0.54442 6.21381C0.680869 6.07632 0.866066 5.99824 1.05976 5.99653H5.0255C5.12835 6.00752 5.23234 5.99394 5.32892 5.95692C5.42549 5.9199 5.51191 5.86049 5.58106 5.78357L10.1422 2.08913C10.2497 2.00248 10.3795 1.94794 10.5166 1.93179C10.6537 1.91564 10.7926 1.93853 10.9173 1.99783C11.042 2.05713 11.1474 2.15043 11.2214 2.26699C11.2955 2.38356 11.3351 2.51865 11.3357 2.65672V17.3465C11.3356 17.4428 11.3165 17.5382 11.2795 17.6271C11.2425 17.716 11.1884 17.7968 11.1202 17.8648C11.0521 17.9328 10.9712 17.9867 10.8821 18.0235C10.7931 18.0602 10.6977 18.0791 10.6014 18.0789C10.4294 18.0793 10.263 18.0182 10.132 17.9067ZM15.2172 16.0225C15.1175 15.8548 15.0879 15.6546 15.1349 15.4653C15.1818 15.276 15.3016 15.1129 15.4681 15.0113C16.0157 14.6778 16.4939 14.2417 16.8764 13.7271C17.7929 12.4485 18.2613 10.903 18.2088 9.33079C18.2297 7.92741 17.7186 6.56814 16.7783 5.52616C16.3655 5.0518 15.8658 4.66082 15.3061 4.37431C15.2167 4.33881 15.1353 4.28606 15.0664 4.21908C14.9975 4.1521 14.9424 4.0722 14.9044 3.98394C14.8663 3.89568 14.846 3.80079 14.8446 3.70469C14.8433 3.60859 14.8608 3.51316 14.8963 3.42385C14.9318 3.33454 14.9846 3.2531 15.0516 3.18417C15.1186 3.11524 15.1985 3.06019 15.2867 3.02214C15.375 2.98409 15.4699 2.9638 15.566 2.96243C15.6621 2.96105 15.7575 2.97862 15.8468 3.01413C16.6095 3.37158 17.2894 3.88401 17.8431 4.51876C19.032 5.83918 19.6837 7.55679 19.6699 9.33357C19.7199 11.2187 19.1521 13.0686 18.0533 14.6012C17.5556 15.2724 16.9335 15.8417 16.2209 16.278C16.0535 16.3758 15.8545 16.4041 15.6665 16.3569C15.4785 16.3096 15.3165 16.1906 15.2153 16.0252L15.2172 16.0225ZM12.6366 13.6465C12.5462 13.4746 12.527 13.2739 12.5831 13.0879C12.6392 12.9019 12.7662 12.7454 12.9366 12.6521C13.2774 12.4719 13.5791 12.2261 13.8246 11.9289C14.3919 11.2362 14.688 10.3609 14.6579 9.46598C14.6602 9.0751 14.5826 8.68787 14.4299 8.32803C14.2772 7.9682 14.0526 7.64335 13.7699 7.37339C13.5067 7.10553 13.1966 6.88807 12.8551 6.73172C12.6757 6.66372 12.53 6.52807 12.4494 6.35389C12.3688 6.17972 12.3597 5.98089 12.4241 5.80008C12.4884 5.61927 12.6211 5.47089 12.7936 5.38679C12.9661 5.30269 13.1647 5.28957 13.3468 5.35024C14.1582 5.69424 14.8524 6.26611 15.3454 6.99659C15.8384 7.72707 16.1091 8.58483 16.1246 9.46598C16.1533 10.7031 15.7374 11.9094 14.9524 12.866C14.5822 13.3072 14.1316 13.6742 13.6246 13.9475C13.519 14.0041 13.4009 14.0334 13.2811 14.0326C13.1487 14.0322 13.019 13.996 12.9056 13.9279C12.7921 13.8597 12.6992 13.7622 12.6366 13.6456V13.6465Z" fill="#7A8CA7"/>
</svg>
