<svg width="24" height="24" viewBox="0 0 24 24" fill="none" xmlns="http://www.w3.org/2000/svg">
<g clip-path="url(#clip0_0_111)">
<mask id="mask0_0_111" style="mask-type:luminance" maskUnits="userSpaceOnUse" x="0" y="0" width="24" height="24">
<path d="M24 0H0V24H24V0Z" fill="white"/>
</mask>
<g mask="url(#mask0_0_111)">
<path d="M15.4856 16.9462L17.4545 7.66507C17.6285 6.84823 17.1596 6.52677 16.6239 6.72736L5.05252 11.187C4.2622 11.4948 4.27594 11.937 4.91878 12.1376L7.87852 13.0616L14.7493 8.73565C15.0707 8.52135 15.3656 8.64223 15.1247 8.85651L9.56705 13.8785L9.35278 16.9325C9.66055 16.9325 9.79505 16.7987 9.95535 16.6376L11.4013 15.2447L14.4013 17.4545C14.9507 17.7622 15.339 17.6019 15.4865 16.9453L15.4856 16.9462ZM24 12C24 18.6291 18.6291 24 12 24C5.37087 24 0 18.6291 0 12C0 5.37087 5.37087 0 12 0C18.6291 0 24 5.37087 24 12Z" fill="white"/>
</g>
</g>
<defs>
<clipPath id="clip0_0_111">
<rect width="24" height="24" fill="white"/>
</clipPath>
</defs>
</svg>
