<svg width="16" height="16" viewBox="0 0 16 16" fill="none" xmlns="http://www.w3.org/2000/svg">
<path fill-rule="evenodd" clip-rule="evenodd" d="M14.7177 2.69689C15.3035 2.1111 15.3035 1.16136 14.7177 0.57557C14.1319 -0.010216 13.1822 -0.0102163 12.5964 0.57557L7.64665 5.5253L2.69692 0.57557C2.11113 -0.0102163 1.16139 -0.010216 0.575599 0.57557C-0.0101872 1.16136 -0.0101871 2.1111 0.575599 2.69689L5.52533 7.64662L0.57557 12.5964C-0.0102161 13.1822 -0.0102162 14.1319 0.57557 14.7177C1.16136 15.3035 2.1111 15.3035 2.69689 14.7177L7.64665 9.76794L12.5964 14.7177C13.1822 15.3035 14.1319 15.3035 14.7177 14.7177C15.3035 14.1319 15.3035 13.1822 14.7177 12.5964L9.76797 7.64662L14.7177 2.69689Z" fill="black"/>
</svg>
